<svg width="96" height="99" viewBox="0 0 96 99" fill="none" xmlns="http://www.w3.org/2000/svg">
<path d="M85.2299 63.4891C88.6699 55.0891 83.0799 54.2291 77.2599 49.8891C71.4399 45.5491 80.9199 43.6891 82.8599 39.2291C84.7999 34.7691 81.3499 31.6291 77.0499 29.2591C72.7399 26.8891 66.4799 17.6691 66.4799 17.6691L66.1999 17.5391C69.4499 24.0591 69.3099 31.5091 69.2599 32.6191C70.2999 32.6791 72.2399 33.1091 72.4799 35.5691C72.7999 38.9391 71.6699 41.5291 69.5699 42.6491C69.5699 42.6491 69.1699 42.8291 68.3199 42.9991C65.7099 53.6391 57.9399 61.3691 48.7499 61.3691C39.5599 61.3691 31.7799 53.6391 29.1799 42.9791V43.0491C28.1499 42.8691 27.6999 42.6491 27.6999 42.6491C25.5999 41.5291 24.4699 38.9391 24.7899 35.5691C25.0399 32.9091 27.2999 32.6191 28.2399 32.6091C28.2199 31.9891 28.1699 29.4791 28.6499 26.2791C27.0599 27.0591 22.2899 29.6391 22.3799 32.6091C22.4999 36.1791 23.5199 41.0791 18.9299 42.4091C14.3399 43.7391 14.1799 52.2891 16.1099 56.6291C18.0399 60.9691 19.3399 63.6991 13.2799 66.3491C7.21994 68.9991 13.9599 74.0391 13.3099 83.7191C12.6599 93.3991 21.4899 89.1091 39.0699 85.8791C56.6499 82.6491 69.2799 86.9591 78.7599 85.8791C88.2299 84.7991 87.1599 81.7991 83.7099 77.3391C80.2599 72.8791 81.7699 71.8891 85.2199 63.4891H85.2299Z" fill="#441D39"/>
<path d="M51.6802 10.7498L66.2102 17.5398C63.4802 12.0698 58.3602 7.24978 48.7602 7.37978C33.9802 7.16978 29.8102 18.6998 28.6602 26.2798C28.9802 26.1198 29.1802 26.0298 29.1802 26.0298L51.6802 10.7398V10.7498Z" fill="#C1735C"/>
<path d="M87.1699 81.8008C78.8899 79.0108 58.1999 68.3008 58.1999 68.3008H37.6299C37.6299 68.3008 16.9499 79.0108 8.65988 81.8008C0.379883 84.5908 0.379883 98.7308 0.379883 98.7308H95.4599C95.4599 98.7308 95.4599 84.5908 87.1799 81.8008H87.1699Z" fill="#4598C4"/>
<path d="M56.9302 58.5195H38.8002L37.4502 69.8595L48.1102 92.7095L58.3302 69.2595L56.9302 58.5195Z" fill="#C1735C"/>
<path d="M38.8298 58.08L38.0198 65.06C38.0198 65.06 52.0698 66.35 57.0198 60.19V59.14C54.4898 60.57 51.6998 61.37 48.7498 61.37C45.1498 61.37 41.7698 60.17 38.8298 58.08Z" fill="#A5503C"/>
<path d="M72.4897 35.57C72.2597 33.11 70.3097 32.68 69.2697 32.62C69.3097 31.51 69.4597 24.06 66.2097 17.54L51.6797 10.75L29.1797 26.04C29.1797 26.04 28.9797 26.13 28.6597 26.29C28.1697 29.49 28.2197 32 28.2497 32.62C27.3097 32.62 25.0497 32.92 24.7997 35.58C24.4797 38.95 25.6097 41.54 27.7097 42.66C27.7097 42.66 28.1597 42.88 29.1897 43.06V42.99C30.7697 49.47 34.2697 54.86 38.8397 58.09C41.7797 60.18 45.1597 61.38 48.7597 61.38C51.6997 61.38 54.4997 60.58 57.0297 59.15C62.3997 56.12 66.5597 50.24 68.3297 43.01C69.1897 42.84 69.5797 42.66 69.5797 42.66C71.6797 41.54 72.8097 38.95 72.4897 35.58V35.57Z" fill="#C1735C"/>
<path d="M34.6398 29.4405C38.0698 29.2005 40.9898 30.0005 42.4698 30.4505C42.9198 30.5905 43.3898 30.4105 43.5798 30.0605C43.7798 29.6505 43.5298 29.1805 43.0298 29.0205C41.3498 28.5005 38.3098 27.6705 34.9398 28.4605C34.4198 28.5805 33.4898 28.9705 33.7098 29.4005C33.8398 29.5505 34.1898 29.4805 34.6398 29.4505V29.4405Z" fill="#441D39"/>
<path d="M63.0695 29.6098C59.6495 29.2298 56.7095 29.9198 55.2095 30.3198C54.7595 30.4398 54.2896 30.2498 54.1196 29.8798C53.9296 29.4598 54.1995 28.9898 54.7095 28.8598C56.4095 28.3998 59.4795 27.6898 62.8195 28.6098C63.3295 28.7498 64.2495 29.1798 64.0096 29.5998C63.8695 29.7498 63.5295 29.6598 63.0795 29.5998L63.0695 29.6098Z" fill="#441D39"/>
<path d="M58.4502 37.2391C59.1185 37.2391 59.6602 36.2989 59.6602 35.1391C59.6602 33.9793 59.1185 33.0391 58.4502 33.0391C57.782 33.0391 57.2402 33.9793 57.2402 35.1391C57.2402 36.2989 57.782 37.2391 58.4502 37.2391Z" fill="#441D39"/>
<path d="M40.2998 36.8094C40.9681 36.8094 41.5098 35.8692 41.5098 34.7094C41.5098 33.5496 40.9681 32.6094 40.2998 32.6094C39.6316 32.6094 39.0898 33.5496 39.0898 34.7094C39.0898 35.8692 39.6316 36.8094 40.2998 36.8094Z" fill="#441D39"/>
<path d="M50.1798 44.5798H48.2698C47.4198 44.5798 46.6698 44.2498 46.2698 43.6998C45.9798 43.3098 45.8998 42.8498 46.0398 42.3998C46.4798 40.9698 46.8498 39.5998 46.8498 39.5898C46.9198 39.3198 47.1898 39.1698 47.4598 39.2398C47.7298 39.3098 47.8898 39.5898 47.8098 39.8498C47.8098 39.8498 47.4398 41.2398 46.9898 42.6898C46.9498 42.8398 46.9698 42.9698 47.0698 43.1098C47.2798 43.3998 47.7498 43.5798 48.2698 43.5798H50.1798C50.4598 43.5798 50.6798 43.7998 50.6798 44.0798C50.6798 44.3598 50.4598 44.5798 50.1798 44.5798Z" fill="#A5503C"/>
<path d="M48.3503 50.87C46.0203 50.87 44.2503 50.55 44.1203 50.52C43.8503 50.47 43.6703 50.21 43.7203 49.94C43.7703 49.67 44.0303 49.49 44.3003 49.54C44.3503 49.54 49.9303 50.57 54.2903 48.94C54.5503 48.84 54.8403 48.97 54.9303 49.23C55.0303 49.49 54.8903 49.78 54.6403 49.87C52.5503 50.65 50.2603 50.87 48.3403 50.87H48.3503Z" fill="#A5503C"/>
<path d="M59.45 40.5297C61.3774 40.5297 62.94 40.1715 62.94 39.7297C62.94 39.2879 61.3774 38.9297 59.45 38.9297C57.5225 38.9297 55.96 39.2879 55.96 39.7297C55.96 40.1715 57.5225 40.5297 59.45 40.5297Z" fill="#AF5D4E"/>
<path d="M39.0896 40.5297C41.0171 40.5297 42.5796 40.1715 42.5796 39.7297C42.5796 39.2879 41.0171 38.9297 39.0896 38.9297C37.1621 38.9297 35.5996 39.2879 35.5996 39.7297C35.5996 40.1715 37.1621 40.5297 39.0896 40.5297Z" fill="#AF5D4E"/>
<path d="M27.5196 26.9397L27.5796 27.4097L24.7396 30.3597L22.5596 36.8097C22.5596 36.8097 25.1096 45.0797 28.7396 50.2097C32.3596 55.3497 30.7096 47.5897 29.1796 42.9697C27.6496 38.3497 30.5096 38.2897 31.1796 35.1397C31.5996 33.1497 30.8596 31.3197 30.2596 30.2497C29.7296 28.4197 30.1996 26.2197 32.7096 25.5397C38.5896 23.9297 34.7396 14.1797 34.7396 14.1797C31.3596 16.3497 28.4196 25.1097 27.5296 26.9297L27.5196 26.9397Z" fill="#441D39"/>
<path d="M72.5396 30.3597L70.4596 30.5197C69.6096 26.1297 67.7396 17.4697 66.0496 16.5697C63.7696 15.3597 61.1796 17.3297 61.1796 17.3297C61.1796 17.3297 62.4796 24.4197 65.3296 26.0197C67.0196 26.9697 67.0096 29.1097 67.0496 30.6897C66.0696 35.7997 63.5296 41.4797 69.2596 46.6097C75.5096 52.1997 76.8596 37.2397 76.8596 37.2397L72.5396 30.3597Z" fill="#441D39"/>
<path d="M69.4202 8.98091C66.1902 3.61091 53.7702 0.950915 43.4302 3.06092L42.7402 0.730914C42.6102 0.300914 42.1602 0.0509151 41.7202 0.180915C41.2902 0.310915 41.0402 0.760915 41.1702 1.20091L41.8302 3.45091C33.8402 5.54091 25.5202 11.4909 21.8702 18.9709C18.1102 26.6709 27.5902 26.8409 27.5902 26.8409C35.6602 14.6709 66.4802 17.6709 66.4802 17.6709C68.2702 17.2909 72.7402 14.5209 69.4102 8.99091L69.4202 8.98091Z" fill="#FF7C59"/>
<path d="M32.87 76.7599C32.68 76.7599 32.5 76.6599 32.42 76.4799C32.3 76.2299 32.41 75.9299 32.65 75.8099L36.42 73.9999C36.67 73.8799 36.97 73.9899 37.09 74.2399C37.21 74.4899 37.1 74.7899 36.86 74.9099L33.09 76.7199C33.02 76.7499 32.95 76.7699 32.87 76.7699V76.7599Z" fill="#2A5E70"/>
<path d="M34.5897 82.7093C34.3997 82.7093 34.2197 82.6093 34.1397 82.4293C34.0197 82.1793 34.1297 81.8793 34.3697 81.7593L38.1397 79.9493C38.3897 79.8293 38.6897 79.9393 38.8097 80.1793C38.9297 80.4193 38.8197 80.7293 38.5797 80.8493L34.8097 82.6593C34.7397 82.6893 34.6697 82.7093 34.5897 82.7093Z" fill="#2A5E70"/>
<path d="M36.7801 89.7405C36.5901 89.7405 36.4102 89.6405 36.3302 89.4605C36.2102 89.2105 36.3202 88.9105 36.5602 88.7905L40.3302 86.9805C40.5802 86.8605 40.8802 86.9705 41.0002 87.2105C41.1202 87.4605 41.0102 87.7605 40.7702 87.8805L37.0002 89.6905C36.9302 89.7205 36.8601 89.7405 36.7801 89.7405Z" fill="#2A5E70"/>
<path d="M62.2901 76.7601C62.2201 76.7601 62.1401 76.7401 62.0701 76.7101L58.3001 74.9001C58.0501 74.7801 57.9501 74.4801 58.0701 74.2301C58.1901 73.9801 58.4901 73.8701 58.7401 73.9901L62.5101 75.8001C62.7601 75.9201 62.8601 76.2201 62.7401 76.4701C62.6501 76.6501 62.4801 76.7501 62.2901 76.7501V76.7601Z" fill="#2A5E70"/>
<path d="M60.5704 82.7091C60.5004 82.7091 60.4204 82.6891 60.3504 82.6591L56.5804 80.8491C56.3304 80.7291 56.2304 80.4291 56.3504 80.1791C56.4704 79.9291 56.7704 79.829 57.0204 79.949L60.7904 81.7591C61.0404 81.8791 61.1404 82.1791 61.0204 82.4291C60.9304 82.6091 60.7604 82.7091 60.5704 82.7091Z" fill="#2A5E70"/>
<path d="M58.38 89.7403C58.31 89.7403 58.23 89.7203 58.16 89.6903L54.39 87.8803C54.14 87.7603 54.04 87.4603 54.16 87.2103C54.28 86.9603 54.58 86.8603 54.83 86.9803L58.6 88.7903C58.85 88.9103 58.95 89.2103 58.83 89.4603C58.74 89.6403 58.57 89.7403 58.38 89.7403Z" fill="#2A5E70"/>
</svg>
