<svg width="96" height="93" viewBox="0 0 96 93" fill="none" xmlns="http://www.w3.org/2000/svg">
<path d="M47.1297 0.579168C47.7597 0.729168 48.3897 0.799168 49.0297 0.739168C52.1897 0.469168 62.9397 0.349168 67.5797 10.5892C73.0397 22.6692 76.0097 25.9392 72.1997 39.9792C68.3897 54.0192 71.4297 53.4892 73.3997 60.6392L73.4597 60.8492C74.5197 64.6992 71.3997 68.4192 67.4097 68.0892L59.7797 67.4392C59.2297 67.3892 58.6697 67.4292 58.1297 67.5392C53.7897 68.4392 33.0597 72.5492 25.1097 70.4692C22.3897 69.7592 20.0597 68.8992 18.1197 68.0392C14.7997 66.5692 13.7597 62.4292 15.8197 59.4392C16.6897 58.1892 17.3697 56.8192 17.5097 55.5092C17.9297 51.4692 15.1197 47.8292 16.2297 40.9792C18.0797 29.5092 21.5897 30.5692 22.2097 23.4092C22.5697 19.3092 28.7397 -3.81083 47.1197 0.579168H47.1297Z" fill="#EB3F3A"/>
<path d="M47.1297 0.579168C47.7597 0.729168 48.3897 0.799168 49.0297 0.739168C52.1897 0.469168 62.9397 0.349168 67.5797 10.5892C73.0397 22.6692 76.0097 25.9392 72.1997 39.9792C68.3897 54.0192 71.4297 53.4892 73.3997 60.6392L73.4597 60.8492C74.5197 64.6992 71.3997 68.4192 67.4097 68.0892L59.7797 67.4392C59.2297 67.3892 58.6697 67.4292 58.1297 67.5392C53.7897 68.4392 33.0597 72.5492 25.1097 70.4692C22.3897 69.7592 20.0597 68.8992 18.1197 68.0392C14.7997 66.5692 13.7597 62.4292 15.8197 59.4392C16.6897 58.1892 17.3697 56.8192 17.5097 55.5092C17.9297 51.4692 15.1197 47.8292 16.2297 40.9792C18.0797 29.5092 21.5897 30.5692 22.2097 23.4092C22.5697 19.3092 28.7397 -3.81083 47.1197 0.579168H47.1297Z" fill="#EB3F3A"/>
<path d="M86.79 75.7995C78.51 73.0095 57.82 62.2995 57.82 62.2995L56.54 52.5195H38.42L37.25 62.2995C37.25 62.2995 16.57 73.0095 8.28 75.7995C-0.0100002 78.5895 5.79279e-08 92.7295 5.79279e-08 92.7295H95.08C95.08 92.7295 95.08 78.5895 86.8 75.7995H86.79Z" fill="#FFB69F"/>
<path d="M47.54 65.3909C53.223 65.3909 57.83 64.0075 57.83 62.3009C57.83 60.5944 53.223 59.2109 47.54 59.2109C41.857 59.2109 37.25 60.5944 37.25 62.3009C37.25 64.0075 41.857 65.3909 47.54 65.3909Z" fill="#FFB69F"/>
<path d="M37.6396 59.0594C37.6396 59.0594 51.6897 60.3494 56.6397 54.1894V47.1094L38.8297 48.8194L37.6396 59.0594Z" fill="#FF9988"/>
<path d="M48.3801 55.3599C59.7075 55.3599 68.8901 43.6208 68.8901 29.1399C68.8901 14.659 59.7075 2.91992 48.3801 2.91992C37.0528 2.91992 27.8701 14.659 27.8701 29.1399C27.8701 43.6208 37.0528 55.3599 48.3801 55.3599Z" fill="#FFB69F"/>
<path d="M68.24 26.6291C68.24 26.6291 71.78 26.1991 72.1 29.5691C72.42 32.9391 71.29 35.5291 69.19 36.6491C69.19 36.6491 68.74 36.8691 67.71 37.0491L68.24 26.6391V26.6291Z" fill="#FFB69F"/>
<path d="M28.2798 26.6291C28.2798 26.6291 24.7398 26.1991 24.4198 29.5691C24.0998 32.9391 25.2298 35.5291 27.3298 36.6491C27.3298 36.6491 27.7798 36.8691 28.8098 37.0491L28.2798 26.6391V26.6291Z" fill="#FFB69F"/>
<path d="M27.8698 26.8702C27.8698 26.8702 26.3798 2.73017 48.3798 3.02017V28.2802L27.8698 26.8702Z" fill="#FFB69F"/>
<path d="M68.8799 26.8702C68.8799 26.8702 70.3699 2.73017 48.3699 3.02017V28.2802L68.8799 26.8702Z" fill="#FFB69F"/>
<path d="M34.3198 23.8806C37.6998 23.2706 40.6898 23.7506 42.2098 24.0406C42.6698 24.1306 43.1298 23.9106 43.2698 23.5306C43.4298 23.1006 43.1298 22.6606 42.6098 22.5606C40.8798 22.2306 37.7698 21.7306 34.5098 22.8706C34.0098 23.0506 33.1198 23.5406 33.3898 23.9306C33.5398 24.0706 33.8698 23.9506 34.3198 23.8706V23.8806Z" fill="#EB3F3A"/>
<path d="M62.6503 23.891C59.2703 23.281 56.2803 23.761 54.7603 24.051C54.3003 24.141 53.8403 23.911 53.7003 23.531C53.5403 23.101 53.8403 22.651 54.3603 22.551C56.0903 22.211 59.2003 21.711 62.4603 22.871C62.9603 23.051 63.8503 23.541 63.5803 23.941C63.4303 24.081 63.1003 23.961 62.6503 23.881V23.891Z" fill="#EB3F3A"/>
<path d="M58.0704 31.2391C58.7386 31.2391 59.2803 30.2989 59.2803 29.1391C59.2803 27.9793 58.7386 27.0391 58.0704 27.0391C57.4021 27.0391 56.8604 27.9793 56.8604 29.1391C56.8604 30.2989 57.4021 31.2391 58.0704 31.2391Z" fill="#441D39"/>
<path d="M39.92 30.8094C40.5882 30.8094 41.13 29.8692 41.13 28.7094C41.13 27.5496 40.5882 26.6094 39.92 26.6094C39.2517 26.6094 38.71 27.5496 38.71 28.7094C38.71 29.8692 39.2517 30.8094 39.92 30.8094Z" fill="#441D39"/>
<path d="M49.7902 38.5798H47.8802C47.0302 38.5798 46.2802 38.2498 45.8802 37.6998C45.5902 37.3098 45.5102 36.8498 45.6502 36.3998C46.0902 34.9598 46.4602 33.5898 46.4602 33.5898C46.5302 33.3198 46.8101 33.1698 47.0701 33.2398C47.3401 33.3098 47.5002 33.5898 47.4202 33.8498C47.4202 33.8498 47.0502 35.2398 46.6002 36.6898C46.5602 36.8398 46.5802 36.9698 46.6802 37.1098C46.8902 37.3898 47.3602 37.5798 47.8802 37.5798H49.7902C50.0702 37.5798 50.2902 37.7998 50.2902 38.0798C50.2902 38.3598 50.0702 38.5798 49.7902 38.5798Z" fill="#FF9988"/>
<path d="M45.4496 45.0895C44.5196 45.0895 43.9096 45.0395 43.8396 45.0295C43.5696 45.0095 43.3596 44.7595 43.3896 44.4895C43.4096 44.2095 43.6596 44.0195 43.9296 44.0295C43.9896 44.0295 49.6296 44.4895 53.8096 42.4295C54.0596 42.3095 54.3596 42.4095 54.4796 42.6595C54.5996 42.9095 54.4996 43.2095 54.2496 43.3295C51.1896 44.8395 47.5196 45.0795 45.4596 45.0795L45.4496 45.0895Z" fill="#FF9988"/>
<path d="M59.0701 34.5297C60.9976 34.5297 62.5601 34.1715 62.5601 33.7297C62.5601 33.2879 60.9976 32.9297 59.0701 32.9297C57.1426 32.9297 55.5801 33.2879 55.5801 33.7297C55.5801 34.1715 57.1426 34.5297 59.0701 34.5297Z" fill="#FF9988"/>
<path d="M38.7097 34.5297C40.6372 34.5297 42.1997 34.1715 42.1997 33.7297C42.1997 33.2879 40.6372 32.9297 38.7097 32.9297C36.7823 32.9297 35.2197 33.2879 35.2197 33.7297C35.2197 34.1715 36.7823 34.5297 38.7097 34.5297Z" fill="#FF9988"/>
<path d="M57.8294 62.3009C57.8294 62.3009 57.5394 58.9409 57.3594 58.7309C52.8494 60.1609 44.3394 60.0009 37.7094 58.4609C37.7094 58.4609 37.1394 60.7009 28.8094 66.5709L16.5294 72.4209L15.3994 92.7309H78.5394L76.4394 71.5409L57.8394 62.3009H57.8294Z" fill="#1C2642"/>
<path d="M55.21 2.15079C55.18 2.10079 55.16 2.04079 55.13 2.00079C54.48 0.920786 44.47 0.480786 43.64 0.740786C42.97 0.950786 34.34 5.92079 31.06 7.82079C30.25 8.29079 29.63 9.02079 29.31 9.90079L22.65 27.9608C22.49 28.3908 22.41 28.8508 22.4 29.3208L22.14 65.7408C22.13 67.8008 21.02 69.1608 23.07 69.3708L32.09 70.4008C34.06 70.6008 35.87 69.3408 36.37 67.4308L37.07 63.4608C37.31 62.5408 37.03 61.8208 37.14 60.7008C37.52 56.9608 31.42 48.3308 32.29 45.7108C33.37 42.4508 34.85 38.9608 35.11 34.5408C35.37 30.1208 32.51 22.3208 36.54 12.8408C39.78 5.22079 47.3 6.74079 50.12 7.63079C50.33 7.70079 50.55 7.74079 50.77 7.77079C50.77 7.77079 66.97 12.7908 67.39 30.8108C67.39 30.8108 68.05 31.8308 68.47 30.6308C71.36 22.3008 67.61 3.94079 55.2 2.16079L55.21 2.15079Z" fill="#EB3F3A"/>
<path d="M68.8597 35.5397C69.2352 35.5397 69.5397 35.2352 69.5397 34.8597C69.5397 34.4841 69.2352 34.1797 68.8597 34.1797C68.4841 34.1797 68.1797 34.4841 68.1797 34.8597C68.1797 35.2352 68.4841 35.5397 68.8597 35.5397Z" fill="white"/>
</svg>
