<svg width="96" height="104" viewBox="0 0 96 104" fill="none" xmlns="http://www.w3.org/2000/svg">
<path d="M86.79 86.8008C78.51 84.0108 57.82 73.3008 57.82 73.3008H37.25C37.25 73.3008 16.57 84.0108 8.28 86.8008C0 89.5908 0 103.731 0 103.731H95.08C95.08 103.731 95.08 89.5908 86.8 86.8008H86.79Z" fill="#424777"/>
<path fill-rule="evenodd" clip-rule="evenodd" d="M37.0703 74.8595L38.4203 63.5195H56.5503L57.9503 74.2595L56.0295 74.3147L51.2496 77.5604L48.9496 100.2L45.1496 77.8404L41.4948 74.7324L37.0703 74.8595Z" fill="#C1735C"/>
<path d="M37.6396 70.0594C37.6396 70.0594 51.6896 71.3494 56.6396 65.1894V58.1094L38.8296 59.8194L37.6396 70.0594Z" fill="#A5503C"/>
<path d="M37.4897 71.3203L30.7197 76.6103L39.8497 85.5203L45.1497 77.8403L37.4897 71.3203Z" fill="#515882"/>
<path d="M51.25 77.5602L57.58 71.4102L63.75 76.2902L55.58 85.2302L51.25 77.5602Z" fill="#515882"/>
<path d="M43.3699 5.46023C42.0599 2.22023 35.8799 0.240234 35.8799 0.240234C37.4099 10.3702 43.2299 8.19023 43.2299 8.19023C43.3499 7.95023 43.4299 7.71023 43.4999 7.48023C48.0599 10.0202 51.8599 0.700234 51.8599 0.700234C45.5099 1.16023 43.7699 3.64023 43.3699 5.46023Z" fill="#FF7C59"/>
<path fill-rule="evenodd" clip-rule="evenodd" d="M48.3801 66.3599C57.5643 66.3599 65.3385 58.6428 67.9516 48.0042C68.8107 47.8345 69.19 47.6491 69.19 47.6491C71.29 46.5291 72.42 43.9391 72.1 40.5691C71.8598 38.04 69.8062 37.6511 68.7962 37.6145C67.8023 24.3184 59.0411 13.9199 48.3801 13.9199C37.7199 13.9199 28.9591 24.317 27.9642 37.6118C27.0895 37.5992 24.6811 37.8173 24.4198 40.5691C24.0998 43.9391 25.2298 46.5291 27.3298 47.6491C27.3298 47.6491 27.7798 47.8691 28.8098 48.0491L28.8073 47.9986C31.419 58.6401 39.1944 66.3599 48.3801 66.3599Z" fill="#C1735C"/>
<path d="M48.3798 12.3797C26.3798 12.0697 27.8698 37.7797 27.8698 37.7797L48.3798 39.2797L68.8898 37.7797C68.8898 37.7797 70.3798 12.0697 48.3798 12.3797Z" fill="#C1735C"/>
<path d="M34.3198 34.8806C37.6998 34.2706 40.6898 34.7506 42.2098 35.0406C42.6698 35.1306 43.1298 34.9106 43.2698 34.5306C43.4298 34.1006 43.1298 33.6606 42.6098 33.5606C40.8798 33.2306 37.7698 32.7306 34.5098 33.8706C34.0098 34.0506 33.1198 34.5406 33.3898 34.9306C33.5398 35.0706 33.8698 34.9506 34.3198 34.8706V34.8806Z" fill="#441D39"/>
<path d="M62.6503 34.891C59.2703 34.281 56.2803 34.761 54.7603 35.051C54.3003 35.141 53.8403 34.911 53.7003 34.531C53.5403 34.101 53.8403 33.651 54.3603 33.551C56.0903 33.211 59.2003 32.711 62.4603 33.871C62.9603 34.051 63.8503 34.541 63.5803 34.941C63.4303 35.081 63.1003 34.961 62.6503 34.881V34.891Z" fill="#441D39"/>
<path d="M58.0704 42.2391C58.7386 42.2391 59.2804 41.2989 59.2804 40.1391C59.2804 38.9793 58.7386 38.0391 58.0704 38.0391C57.4021 38.0391 56.8604 38.9793 56.8604 40.1391C56.8604 41.2989 57.4021 42.2391 58.0704 42.2391Z" fill="#441D39"/>
<path d="M39.92 41.8094C40.5882 41.8094 41.13 40.8692 41.13 39.7094C41.13 38.5496 40.5882 37.6094 39.92 37.6094C39.2517 37.6094 38.71 38.5496 38.71 39.7094C38.71 40.8692 39.2517 41.8094 39.92 41.8094Z" fill="#441D39"/>
<path d="M49.7999 49.5796H47.8899C47.0399 49.5796 46.2899 49.2496 45.8899 48.7096C45.5999 48.3196 45.5199 47.8596 45.6599 47.4096C46.0999 45.9696 46.4699 44.6096 46.4699 44.5996C46.5399 44.3296 46.8099 44.1796 47.0799 44.2496C47.3499 44.3196 47.5099 44.5996 47.4299 44.8596C47.4299 44.8596 47.0599 46.2496 46.6099 47.6996C46.5699 47.8396 46.5899 47.9796 46.6899 48.1196C46.8999 48.4096 47.3699 48.5896 47.8899 48.5896H49.7999C50.0799 48.5896 50.2999 48.8096 50.2999 49.0896C50.2999 49.3696 50.0799 49.5896 49.7999 49.5896V49.5796Z" fill="#A5503C"/>
<path d="M45.4405 56.0993C44.5105 56.0993 43.9005 56.0493 43.8305 56.0393C43.5505 56.0193 43.3505 55.7693 43.3705 55.4993C43.3905 55.2293 43.6305 55.0193 43.9105 55.0393C43.9705 55.0393 49.6105 55.4993 53.7905 53.4393C54.0405 53.3193 54.3405 53.4193 54.4605 53.6693C54.5805 53.9193 54.4805 54.2193 54.2305 54.3393C51.1705 55.8493 47.5005 56.0893 45.4305 56.0893L45.4405 56.0993Z" fill="#A5503C"/>
<path d="M59.0701 45.5297C60.9976 45.5297 62.5601 45.1715 62.5601 44.7297C62.5601 44.2879 60.9976 43.9297 59.0701 43.9297C57.1426 43.9297 55.5801 44.2879 55.5801 44.7297C55.5801 45.1715 57.1426 45.5297 59.0701 45.5297Z" fill="#AF5D4E"/>
<path d="M38.7097 45.5297C40.6372 45.5297 42.1997 45.1715 42.1997 44.7297C42.1997 44.2879 40.6372 43.9297 38.7097 43.9297C36.7823 43.9297 35.2197 44.2879 35.2197 44.7297C35.2197 45.1715 36.7823 45.5297 38.7097 45.5297Z" fill="#AF5D4E"/>
<path d="M61.7598 22.0101C61.7598 22.0101 67.8198 32.9401 68.8798 37.7801C68.8798 37.7801 72.1598 23.2101 64.4298 15.3301L61.7598 22.0001V22.0101Z" fill="#FF7C59"/>
<path d="M27.8696 37.7809L30.0496 29.4609H27.3896L27.8696 37.7809Z" fill="#FF7C59"/>
<path d="M61.0698 11.0203C61.0698 11.0203 61.0698 10.9703 61.0698 10.9503C61.0698 8.62031 59.1798 6.74031 56.8598 6.74031C56.3498 6.74031 55.8798 6.84031 55.4298 7.01031C54.1898 5.70031 52.2498 4.85031 50.0498 4.85031C48.0198 4.85031 46.1998 5.58031 44.9498 6.73031C43.6398 5.94031 42.0198 5.46031 40.2698 5.46031C39.5298 5.46031 38.8198 5.55031 38.1398 5.70031C37.1498 4.84031 35.8698 4.32031 34.4598 4.32031C32.2398 4.32031 30.3298 5.61031 29.4198 7.48031C28.8698 7.02031 28.1698 6.74031 27.3998 6.74031C25.6398 6.74031 24.2198 8.17031 24.2198 9.92031C24.2198 10.1103 24.2398 10.2903 24.2798 10.4703C20.8098 10.5203 18.0098 13.3503 18.0098 16.8303C18.0098 18.9403 19.0398 20.8103 20.6298 21.9703C20.0398 22.9303 19.6998 24.0603 19.6998 25.2803C19.6998 28.8003 22.5498 31.6503 26.0698 31.6503C29.5898 31.6503 32.4398 28.8003 32.4398 25.2803C32.4398 25.2103 32.4398 25.1403 32.4298 25.0703C33.2798 25.4903 34.2298 25.7303 35.2398 25.7303C38.6098 25.7303 41.3598 23.1103 41.5898 19.8103C42.7398 20.9803 44.3398 21.7003 46.1098 21.7003C48.7398 21.7003 50.9998 20.1003 51.9698 17.8203C52.4998 20.8103 55.0998 23.0803 58.2398 23.0803C61.7598 23.0803 64.6098 20.2303 64.6098 16.7103C64.6098 14.2203 63.1798 12.0703 61.0898 11.0203H61.0698Z" fill="#441D39"/>
</svg>
