<svg width="96" height="97" viewBox="0 0 96 97" fill="none" xmlns="http://www.w3.org/2000/svg">
<path d="M68.3298 30.6291C68.3298 30.6291 71.8698 30.1991 72.1898 33.5691C72.5098 36.9391 71.3798 39.5291 69.2798 40.6491C69.2798 40.6491 68.8298 40.8691 67.7998 41.0491L68.3298 30.6391V30.6291Z" fill="#FFB69F"/>
<path d="M28.2798 30.6291C28.2798 30.6291 24.7398 30.1991 24.4198 33.5691C24.0998 36.9391 25.2298 39.5291 27.3298 40.6491C27.3298 40.6491 27.7798 40.8691 28.8098 41.0491L28.2798 30.6391V30.6291Z" fill="#FFB69F"/>
<path d="M0 96.7308C0 96.7308 0 82.5908 8.28 79.8008C16.56 77.0108 35.27 66.3008 35.27 66.3008H47.93V96.7308H0Z" fill="#F49037"/>
<path d="M95.0794 96.7308C95.0794 96.7308 95.0794 82.5908 86.7994 79.8008C78.5194 77.0108 60.0094 66.3008 60.0094 66.3008H47.1494V96.7308H95.0794Z" fill="#F49037"/>
<path d="M38.42 56.5195L37.25 66.2995H57.83L56.55 56.5195H38.42Z" fill="#FFB69F"/>
<path d="M47.54 72.1509C53.223 72.1509 57.83 70.1497 57.83 67.6809C57.83 65.2122 53.223 63.2109 47.54 63.2109C41.857 63.2109 37.25 65.2122 37.25 67.6809C37.25 70.1497 41.857 72.1509 47.54 72.1509Z" fill="#FFB69F"/>
<path d="M37.6396 63.0594C37.6396 63.0594 51.6897 64.3494 56.6397 58.1894V51.1094L38.8297 52.8194L37.6396 63.0594Z" fill="#FF9988"/>
<path d="M48.3801 59.3599C59.7075 59.3599 68.8901 47.6208 68.8901 33.1399C68.8901 18.659 59.7075 6.91992 48.3801 6.91992C37.0528 6.91992 27.8701 18.659 27.8701 33.1399C27.8701 47.6208 37.0528 59.3599 48.3801 59.3599Z" fill="#FFB69F"/>
<path d="M66.2901 12.2008C66.2901 12.2008 66.3101 12.1508 66.2901 12.1208C65.6101 10.4908 64.7801 2.30079 51.4401 1.06079C48.0201 0.740786 43.1301 1.31079 40.0301 2.79079C35.7801 4.81079 31.0301 5.97078 26.8301 5.96078C26.6501 5.96078 26.5801 6.20079 26.7401 6.29079L30.0201 8.90078C30.1501 8.97079 30.1401 9.16078 30.0001 9.22078L25.8801 10.4708C25.7301 10.5308 25.7301 10.7508 25.8801 10.8008C26.5501 11.0208 28.2501 11.7708 29.7901 12.3008C27.2701 16.7608 27.8501 23.1708 27.8501 30.8708C27.8501 30.8708 27.7701 38.8508 30.4601 48.0008C33.4001 58.0008 39.8501 62.2908 48.9401 62.3208C58.6201 62.3608 63.6701 54.0608 65.0201 51.1108C67.0801 46.5908 68.8501 38.1908 68.8601 33.1408C68.8601 33.1408 72.5801 20.3808 66.2701 12.2008H66.2901ZM58.0701 49.2508C56.0701 50.2708 57.0801 44.9608 53.1001 44.7408C51.7701 44.6608 47.2501 44.3508 43.4501 44.6708C40.5601 44.9208 39.8601 47.5208 39.7301 48.8408C39.6701 49.4108 39.4701 49.6708 38.9301 49.4708C37.7301 49.0308 35.1801 47.6108 33.9801 46.2908C32.7401 44.9308 30.5001 41.2608 30.2901 33.5108L30.5101 22.4408C30.5101 22.4408 34.9601 18.7108 35.7301 16.0608C35.7301 16.0608 55.6101 19.2408 61.3701 16.0608C61.3701 16.0608 63.7801 20.6708 66.4101 22.0608C67.2201 22.4808 67.0801 27.7408 67.0101 31.3708C66.9401 31.8608 66.8801 32.4208 66.8501 33.0808C66.3201 43.4508 60.0501 48.2408 58.0601 49.2608L58.0701 49.2508Z" fill="#B54D4D"/>
<path d="M58.0704 35.2391C58.7386 35.2391 59.2803 34.2989 59.2803 33.1391C59.2803 31.9793 58.7386 31.0391 58.0704 31.0391C57.4021 31.0391 56.8604 31.9793 56.8604 33.1391C56.8604 34.2989 57.4021 35.2391 58.0704 35.2391Z" fill="#441D39"/>
<path d="M39.92 34.8094C40.5882 34.8094 41.13 33.8692 41.13 32.7094C41.13 31.5496 40.5882 30.6094 39.92 30.6094C39.2517 30.6094 38.71 31.5496 38.71 32.7094C38.71 33.8692 39.2517 34.8094 39.92 34.8094Z" fill="#441D39"/>
<path d="M49.7902 42.5801H47.8802C47.0302 42.5801 46.2802 42.2501 45.8802 41.7001C45.5902 41.3101 45.5102 40.8501 45.6502 40.4001C46.0802 39.0201 46.6401 33.8701 46.6401 33.8201C46.6701 33.5401 46.9102 33.3501 47.1902 33.3801C47.4602 33.4101 47.6602 33.6601 47.6302 33.9301C47.6102 34.1501 47.0502 39.2201 46.6002 40.7001C46.5602 40.8501 46.5802 40.9801 46.6802 41.1201C46.8902 41.4001 47.3602 41.5901 47.8802 41.5901H49.7902C50.0702 41.5901 50.2902 41.8101 50.2902 42.0901C50.2902 42.3701 50.0702 42.5901 49.7902 42.5901V42.5801Z" fill="#FF9988"/>
<path d="M59.1296 38.5297C61.0571 38.5297 62.6196 38.1715 62.6196 37.7297C62.6196 37.2879 61.0571 36.9297 59.1296 36.9297C57.2022 36.9297 55.6396 37.2879 55.6396 37.7297C55.6396 38.1715 57.2022 38.5297 59.1296 38.5297Z" fill="#FF9988"/>
<path d="M38.7595 38.5297C40.687 38.5297 42.2495 38.1715 42.2495 37.7297C42.2495 37.2879 40.687 36.9297 38.7595 36.9297C36.8321 36.9297 35.2695 37.2879 35.2695 37.7297C35.2695 38.1715 36.8321 38.5297 38.7595 38.5297Z" fill="#FF9988"/>
<path d="M62.3095 28.2591C58.9795 27.2791 56.4295 27.8991 54.8795 28.0991C54.2195 28.1791 54.0795 27.3691 54.0795 27.3691C53.9495 26.8191 54.6895 26.4391 55.2095 26.3391C56.9595 26.0191 59.1995 25.8591 62.5195 27.0091C63.1595 27.2291 63.1995 27.7691 63.1995 27.7691C63.1295 28.3691 62.7495 28.3791 62.3095 28.2491V28.2591Z" fill="#B54D4D"/>
<path d="M35.4996 28.3205C38.8096 27.2805 41.3696 27.8605 42.9196 28.0305C43.5796 28.1005 43.7096 27.2905 43.7096 27.2905C43.8296 26.7405 43.0796 26.3705 42.5596 26.2805C40.7996 25.9905 38.5596 25.8605 35.2696 27.0705C34.6296 27.3005 34.5996 27.8405 34.5996 27.8405C34.6796 28.4405 35.0596 28.4405 35.4896 28.3105L35.4996 28.3205Z" fill="#B54D4D"/>
<path d="M48.2701 50.7009C45.9101 50.7009 44.0301 50.2009 43.9101 50.1709C43.6401 50.1009 43.4901 49.8209 43.5601 49.5609C43.6301 49.3009 43.9101 49.1409 44.1701 49.2109C44.2201 49.2209 48.8201 50.4409 52.5301 48.9909C52.7901 48.8909 53.0801 49.0209 53.1801 49.2709C53.2801 49.5309 53.1501 49.8209 52.9001 49.9209C51.3701 50.5209 49.7301 50.7109 48.2801 50.7109L48.2701 50.7009Z" fill="#9B3D3D"/>
<path d="M37.69 63.1094L45.65 68.7894L41.8 78.0094L31.5 68.4194L37.69 63.1094Z" fill="#FFA242"/>
<path d="M45.6499 68.7894L46.1299 72.1994L44.3199 71.9694L45.6499 68.7894Z" fill="#F49037"/>
<path d="M50.1902 68.6098L49.4902 72.1998L51.4502 71.8698L50.1902 68.6098Z" fill="#F49037"/>
<path d="M50.1902 68.6098L57.4802 63.2598L64.3102 68.7398L54.1502 78.8898L50.1902 68.6098Z" fill="#FFA242"/>
<path d="M49.4799 73.5098H46.1299V96.7198H49.4799V73.5098Z" fill="white"/>
<path d="M46.0598 71.7209L46.1298 73.7609C46.1298 73.7609 47.6898 74.4409 49.4798 73.7609L49.5298 71.9109L46.0498 71.7109L46.0598 71.7209Z" fill="#FFB69F"/>
<path d="M49.4799 78.4102H46.1299V79.4102H49.4799V78.4102Z" fill="#D6D6D6"/>
<path d="M49.4799 82.9199H46.1299V83.9199H49.4799V82.9199Z" fill="#D6D6D6"/>
<path d="M49.4799 87.4297H46.1299V88.4297H49.4799V87.4297Z" fill="#D6D6D6"/>
<path d="M49.4799 91.9395H46.1299V92.9395H49.4799V91.9395Z" fill="#D6D6D6"/>
<path d="M52.3302 83.8909C52.8162 83.8909 53.2102 83.4969 53.2102 83.0109C53.2102 82.5249 52.8162 82.1309 52.3302 82.1309C51.8442 82.1309 51.4502 82.5249 51.4502 83.0109C51.4502 83.4969 51.8442 83.8909 52.3302 83.8909Z" fill="#FFA242"/>
<path d="M52.3302 93.7092C52.8162 93.7092 53.2102 93.3152 53.2102 92.8292C53.2102 92.3432 52.8162 91.9492 52.3302 91.9492C51.8442 91.9492 51.4502 92.3432 51.4502 92.8292C51.4502 93.3152 51.8442 93.7092 52.3302 93.7092Z" fill="#FFA242"/>
</svg>
