<svg width="96" height="97" viewBox="0 0 96 97" fill="none" xmlns="http://www.w3.org/2000/svg">
<path d="M37.2504 5.40039C37.2504 5.40039 25.1804 8.01039 26.0604 23.8604C26.9404 39.7104 24.1104 44.1804 24.1104 44.1804L27.2104 43.3204L37.2404 50.1904L64.2803 44.7804L68.5204 46.0404L69.8304 43.0804C69.8304 43.0804 71.3204 44.6804 72.8004 44.7704C72.8004 44.7704 71.4204 37.6504 71.6804 34.4704C72.2304 27.8104 69.0303 18.1204 69.0303 18.1204L37.2304 5.40039H37.2504Z" fill="#441D39"/>
<path d="M86.7905 79.8006C79.9705 77.5106 64.7605 69.8505 59.5905 67.2105C59.1905 67.0105 58.8605 66.8305 58.5905 66.7005C58.1105 66.4505 57.8305 66.3105 57.8305 66.3105H37.2605C37.2605 66.3105 36.9905 66.4505 36.5005 66.7005C36.2305 66.8405 35.8905 67.0105 35.5005 67.2105C34.7405 67.6005 33.7705 68.0906 32.6405 68.6606C26.0505 71.9806 14.1205 77.8506 8.30051 79.8006C0.0205078 82.5906 0.0205078 96.7306 0.0205078 96.7306H95.0705C95.0705 96.7306 95.0705 82.5906 86.7905 79.8006Z" fill="#FDEBD9"/>
<path d="M56.54 56.5195H38.42L37.25 66.2995C37.25 68.2195 41.86 69.7795 47.54 69.7795C53.22 69.7795 57.83 68.2195 57.83 66.2995L56.55 56.5195H56.54Z" fill="#C1735C"/>
<path d="M30.5096 22.5995C30.5096 22.5995 31.1696 17.2195 35.7296 16.2195C35.7296 16.2195 67.7996 16.2195 61.3696 16.2195C61.3696 16.2195 65.5396 16.2195 66.4096 22.2195C66.5396 23.1195 67.8696 32.3495 67.7896 35.9795C67.7396 38.3095 68.6496 37.0795 68.6496 37.0795C68.6496 37.0795 69.6296 33.3595 69.7896 28.4795C70.0896 19.1795 68.8796 3.18945 49.2696 3.18945C29.6596 3.18945 27.8496 14.9595 27.8496 30.1395L28.5696 37.6095C28.5996 37.9095 28.8496 38.1295 29.1496 38.1295C29.7196 38.1295 30.4996 22.5995 30.4996 22.5995H30.5096Z" fill="#C1735C"/>
<path d="M65.73 20.6593C66.1111 20.6593 66.42 20.3504 66.42 19.9693C66.42 19.5882 66.1111 19.2793 65.73 19.2793C65.349 19.2793 65.04 19.5882 65.04 19.9693C65.04 20.3504 65.349 20.6593 65.73 20.6593Z" fill="#FF9988"/>
<path d="M37.6396 63.0594C37.6396 63.0594 51.6896 64.3494 56.6396 58.1894V51.1094L38.8296 52.8194L37.6396 63.0594Z" fill="#A5503C"/>
<path fill-rule="evenodd" clip-rule="evenodd" d="M49.0178 59.3599C58.5272 59.3599 66.5251 51.0991 68.8473 39.8928C69.2797 39.7755 69.4771 39.6792 69.4771 39.6792C71.5771 38.5609 72.7071 35.9749 72.3871 32.61C72.1662 30.2879 70.4119 29.7728 69.3458 29.6765C68.0044 16.8742 59.4145 7 49.0178 7C38.4067 7 29.6776 17.2858 28.6162 30.4724C28.1126 30.4634 25.1176 30.5401 25.0077 33.64C24.8877 37.0248 26.1777 39.531 28.3377 40.5195C28.3377 40.5195 28.6622 40.6533 29.3823 40.7671C31.9305 51.5262 39.7574 59.3599 49.0178 59.3599Z" fill="#C1735C"/>
<path d="M58.0596 35.2391C58.7279 35.2391 59.2696 34.2989 59.2696 33.1391C59.2696 31.9793 58.7279 31.0391 58.0596 31.0391C57.3914 31.0391 56.8496 31.9793 56.8496 33.1391C56.8496 34.2989 57.3914 35.2391 58.0596 35.2391Z" fill="#441D39"/>
<path d="M39.9102 34.8094C40.5785 34.8094 41.1202 33.8692 41.1202 32.7094C41.1202 31.5496 40.5785 30.6094 39.9102 30.6094C39.2419 30.6094 38.7002 31.5496 38.7002 32.7094C38.7002 33.8692 39.2419 34.8094 39.9102 34.8094Z" fill="#441D39"/>
<path d="M49.7902 42.5794H47.8802C47.0302 42.5794 46.2802 42.2494 45.8802 41.7094C45.5902 41.3194 45.5102 40.8594 45.6502 40.4094C46.0802 39.0094 46.6702 35.2094 46.6802 35.1694C46.7202 34.8994 46.9802 34.7194 47.2502 34.7494C47.5202 34.7894 47.7102 35.0494 47.6702 35.3194C47.6502 35.4794 47.0602 39.2394 46.6102 40.6994C46.5702 40.8394 46.5902 40.9794 46.6902 41.1194C46.9002 41.4094 47.3702 41.5894 47.8902 41.5894H49.8002C50.0802 41.5894 50.3002 41.8094 50.3002 42.0894C50.3002 42.3694 50.0802 42.5894 49.8002 42.5894L49.7902 42.5794Z" fill="#A5503C"/>
<path d="M59.1297 38.5297C61.0571 38.5297 62.6197 38.1715 62.6197 37.7297C62.6197 37.2879 61.0571 36.9297 59.1297 36.9297C57.2022 36.9297 55.6396 37.2879 55.6396 37.7297C55.6396 38.1715 57.2022 38.5297 59.1297 38.5297Z" fill="#AF5D4E"/>
<path d="M38.7605 38.5297C40.688 38.5297 42.2505 38.1715 42.2505 37.7297C42.2505 37.2879 40.688 36.9297 38.7605 36.9297C36.833 36.9297 35.2705 37.2879 35.2705 37.7297C35.2705 38.1715 36.833 38.5297 38.7605 38.5297Z" fill="#AF5D4E"/>
<path d="M62.3604 28.0303C58.9804 27.2603 56.4704 28.0303 54.9404 28.3303C54.2904 28.4603 54.0904 27.6503 54.0904 27.6503C53.9304 27.1103 54.6404 26.6803 55.1604 26.5603C56.8904 26.1303 59.1104 25.8303 62.4904 26.7803C63.1404 26.9603 63.2103 27.5003 63.2103 27.5003C63.1703 28.1003 62.8004 28.1403 62.3604 28.0303Z" fill="#441D39"/>
<path d="M35.4003 27.8892C38.8103 27.2492 41.2903 28.1292 42.8103 28.4792C43.4603 28.6292 43.6803 27.8392 43.6803 27.8392C43.8603 27.3092 43.1703 26.8492 42.6603 26.6992C40.9503 26.2092 38.7403 25.8192 35.3203 26.6292C34.6603 26.7892 34.5703 27.3192 34.5703 27.3192C34.5803 27.9192 34.9503 27.9692 35.4003 27.8892Z" fill="#441D39"/>
<path d="M48.2703 50.1794C45.9003 50.1794 44.0303 49.6794 43.9003 49.6494C43.6303 49.5794 43.4803 49.2994 43.5503 49.0394C43.6203 48.7694 43.9003 48.6194 44.1603 48.6894C44.2103 48.6994 48.8103 49.9194 52.5203 48.4694C52.7803 48.3694 53.0703 48.4994 53.1703 48.7494C53.2703 49.0094 53.1403 49.2994 52.8903 49.3994C51.3603 49.9994 49.7203 50.1894 48.2703 50.1894V50.1794Z" fill="#A5503C"/>
<path d="M63.1304 4.89073C49.4104 -5.95927 37.2504 5.40073 37.2504 5.40073C25.2204 7.60073 26.9304 25.3607 27.2204 27.2607C27.5104 29.1507 27.8804 30.4607 27.8804 30.4607C28.1404 30.4707 28.3804 30.4607 28.6104 30.4107L29.6304 37.7307C29.7004 37.9907 30.0904 38.0107 30.1804 37.7307C30.2704 37.6307 30.5504 33.3507 30.8204 28.8807C33.1004 25.5107 33.0004 17.6207 37.2504 14.0907C39.3304 12.3607 42.2504 13.7207 42.2504 13.7207C42.2504 13.7207 44.4304 9.87073 49.6204 12.1107C54.2904 14.1207 60.0304 26.7907 66.3604 29.8007C66.6104 33.9207 66.8604 37.6407 66.9404 37.7407C67.0304 38.0207 67.4204 38.0007 67.4904 37.7407L68.5104 30.4307L71.4104 28.9207C71.4104 28.9207 72.7204 10.8807 63.1104 4.90073L63.1304 4.89073Z" fill="#441D39"/>
<path d="M86.7899 79.8009C83.1899 78.5909 77.2499 75.8809 71.6799 73.2109L56.1399 78.7209V93.5909H55.1399V79.0709L51.9199 80.2109V96.7209H95.0699C95.0699 96.7209 95.0699 82.5809 86.7899 79.7909V79.8009Z" fill="#4598C4"/>
<path d="M64.2399 67.4007C59.3199 65.7107 51.9199 80.2107 51.9199 80.2107L55.1399 79.0707V93.5907H56.1399V78.7207L71.6799 73.2107L71.7399 73.1907C71.7399 73.1907 69.1699 69.0907 64.2499 67.4007H64.2399Z" fill="#2B7FA5"/>
<path d="M40.21 79.1395L37.9 93.1895L36.91 93.0294L39.25 78.7995L23.43 73.1895C17.85 75.8695 11.89 78.5895 8.28 79.7995C9.53674e-07 82.5895 0 96.7295 0 96.7295H43.03L43.25 80.2195L40.21 79.1395Z" fill="#4598C4"/>
<path d="M30.9304 67.4005C26.0204 69.0805 23.4504 73.1705 23.4404 73.1905L39.2604 78.8005L36.9204 93.0305L37.9104 93.1905L40.2204 79.1405L43.2604 80.2205C43.2604 80.2205 35.8504 65.7205 30.9404 67.4105L30.9304 67.4005Z" fill="#2B7FA5"/>
</svg>
